<?xml version="1.0" standalone="no"?><!DOCTYPE svg PUBLIC "-//W3C//DTD SVG 1.1//EN" "http://www.w3.org/Graphics/SVG/1.1/DTD/svg11.dtd" ><svg xmlns="http://www.w3.org/2000/svg"><metadata></metadata><defs><font id="Akzidenz-Grotesk BQ Bold Condensed:1179435597" horiz-adv-x="834"><font-face font-family="Akzidenz-Grotesk BQ Condensed" font-weight="700" font-stretch="normal" units-per-em="1000" panose-1="0 0 0 0 0 0 0 0 0 0" ascent="706" descent="-177" x-height="0" bbox="-8 -182 793 774" underline-thickness="92" underline-position="-176" unicode-range="U+0023-007d" /><missing-glyph horiz-adv-x="500" d="M172 190 l-78 0 l-16 197 l0 319 l113 0 l0 -313 l-19 -203 ZM75 0 l0 132 l119 0 l0 -132 l-119 0 Z" /><glyph glyph-name="numbersign" unicode="#" d="M413 405 l-9 -89 l106 0 l0 -96 l-114 0 l-21 -220 l-95 0 l20 220 l-71 0 l-21 -220 l-96 0 l20 220 l-117 0 l0 96 l126 0 l8 89 l-122 0 l0 96 l132 0 l19 205 l96 0 l-19 -205 l71 0 l19 205 l96 0 l-20 -205 l101 0 l0 -96 l-109 0 ZM245 405 l-7 -89 l71 0 l8 89 l-72 0 Z" /><glyph glyph-name="parenleft" unicode="(" d="M272 -182 q-50 18 -95 49 q-60 42 -91.5 95 q-31.5 53 -31.5 127 l0 411 q0 52 17.5 94 q17.5 42 47.5 75.5 q30 33.5 69.5 59.5 q39.5 26 83.5 45 l0 -93 q-60 -34 -79.5 -85.5 q-19.5 -51.5 -19.5 -115.5 l0 -397 q0 -32 6 -56.5 q6 -24.5 18.5 -45.5 q12.5 -21 31 -39.5 q18.5 -18.5 43.5 -36.5 l0 -87 l0 0 Z" /><glyph glyph-name="parenright" unicode=")" d="M238 91 q0 -52 -18 -94 q-18 -42 -48 -75.5 q-30 -33.5 -69.5 -59 q-39.5 -25.5 -82.5 -44.5 l0 93 q30 16 49.5 38 q19.5 22 30.5 47.5 q11 25.5 15 54.5 q4 29 4 61 l0 397 q0 33 -6.5 57.5 q-6.5 24.5 -19 45 q-12.5 20.5 -31 38 q-18.5 17.5 -42.5 37.5 l0 87 q26 -8 49.5 -21 q23.5 -13 45.5 -29 q60 -44 91.5 -95.5 q31.5 -51.5 31.5 -126.5 l0 -411 l0 0 Z" /><glyph glyph-name="asterisk" unicode="*" d="M260 523 l60 -79 l-68 -53 l-64 83 l-58 -83 l-70 51 l56 80 l-96 28 l25 83 l98 -28 l0 103 l87 0 l0 -104 l100 34 l28 -81 l-98 -34 Z" /><glyph glyph-name="plus" unicode="+" d="M339 249 l0 -158 l-119 0 l0 158 l-138 0 l0 100 l138 0 l0 157 l119 0 l0 -157 l137 0 l0 -100 l-137 0 Z" /><glyph glyph-name="comma" unicode="," d="M70 -135 l-44 0 l68 135 l-58 0 l0 129 l117 0 l0 -129 l-83 -135 Z" /><glyph glyph-name="hyphen" unicode="-" d="M33 242 l0 99 l248 0 l0 -99 l-248 0 Z" /><glyph glyph-name="period" unicode="." d="M35 0 l0 129 l117 0 l0 -129 l-117 0 Z" /><glyph glyph-name="slash" unicode="/" d="M111 0 l-99 0 l130 706 l98 0 l-129 -706 Z" /><glyph glyph-name="zero" unicode="0" d="M366 152 q0 -15 -1 -27 q-1 -12 -5 -26 q-2 -9 -7.5 -23.5 q-5.5 -14.5 -17 -29 q-11.5 -14.5 -29 -28 q-17.5 -13.5 -43.5 -20.5 q-9 -2 -24 -4.5 q-15 -2.5 -38 -2.5 q-35 0 -70 8 q-35 8 -62 34 q-6 6 -14.5 17.5 q-8.5 11.5 -15.5 31.5 q-5 14 -7.5 29 q-2.5 15 -2.5 44 l0 344 q0 7 0.5 13.5 q0.5 6.5 0.5 14.5 q2 26 7 47 q5 21 21 42 q16 22 37 33.5 q21 11.5 41 17 q20 5.5 36.5 6.5 q16.5 1 23.5 1 q38 0 65.5 -8 q27.5 -8 46.5 -20.5 q19 -12.5 30.5 -28.5 q11.5 -16 17.5 -32 q5 -14 7.5 -30 q2.5 -16 2.5 -46 l0 -357 ZM251 512 q0 1 0 5.5 q0 4.5 0 11.5 q0 7 -1 14 q-1 7 -3 13 q-5 17 -18 24 q-13 7 -30 7 q-23 0 -34 -9 q-11 -9 -15.5 -21 q-4.5 -12 -4.5 -23.5 q0 -11.5 0 -16.5 l0 -374 q0 -5 0.5 -15.5 q0.5 -10.5 5 -21 q4.5 -10.5 15 -18 q10.5 -7.5 30.5 -7.5 q13 0 21 3 q8 3 13 6 q16 11 18.5 27.5 q2.5 16.5 2.5 33.5 l0 361 Z" /><glyph glyph-name="one" unicode="1" d="M148 0 l0 507 q-4 -3 -7.5 -6 q-3.5 -3 -8.5 -6 q-10 -6 -31.5 -15 q-21.5 -9 -52.5 -14 l1 92 q4 2 10 3 q6 1 14 5 q4 1 13 6 q9 5 20.5 12 q11.5 7 23.5 16 q12 9 23 20 q9 10 15 18 q6 8 19 27 l78 0 l0 -665 l-117 0 Z" /><glyph glyph-name="two" unicode="2" d="M21 0 l0 16 q0 45 7 85.5 q7 40.5 27 82.5 q20 40 45.5 68 q25.5 28 57.5 59 q8 8 15.5 15.5 q7.5 7.5 15.5 15.5 q14 14 29 29.5 q15 15.5 23 34.5 q5 11 6.5 22 q1.5 11 1.5 23 l0 76 q0 14 -3 27 q-3 13 -14 22 q-9 7 -18.5 8 q-9.5 1 -13.5 1 q-2 0 -11.5 -0.5 q-9.5 -0.5 -17.5 -4.5 q-18 -9 -22.5 -25.5 q-4.5 -16.5 -4.5 -33.5 l0 -79 l-109 0 l0 81 q0 30 6 55.5 q6 25.5 26 48.5 q16 18 36 27.5 q20 9.5 38.5 14 q18.5 4.5 33.5 5 q15 0.5 21 0.5 q5 0 25 -1 q20 -1 45 -8 q25 -7 48.5 -23 q23.5 -16 36.5 -46 q8 -19 10.5 -40.5 q2.5 -21.5 2.5 -25.5 l0 -88 q0 -26 -2 -38 q-2 -12 -7 -25 q-10 -30 -41 -64 q-31 -34 -81 -83 q-21 -21 -44.5 -46 q-23.5 -25 -33.5 -55 q-2 -8 -3 -12.5 q-1 -4.5 -2 -18.5 l221 0 l0 -100 l-350 0 Z" /><glyph glyph-name="three" unicode="3" d="M367 143 q0 -24 -2.5 -37 q-2.5 -13 -6.5 -24 q-6 -15 -18 -31 q-12 -16 -31 -29.5 q-19 -13.5 -46 -22 q-27 -8.5 -64 -8.5 q-6 0 -27 1.5 q-21 1.5 -45.5 9.5 q-24.5 8 -49 25 q-24.5 17 -37.5 48 q-5 11 -8 21 q-3 10 -3 32 l0 81 l115 0 l0 -71 q0 -22 3 -29 q5 -11 17 -20 q12 -9 37 -9 q4 0 12 1 q8 1 17 6 q14 8 17.5 20.5 q3.5 12.5 3.5 26.5 l0 100 q0 18 -2 35 q-2 17 -18 31 q-14 12 -31.5 14 q-17.5 2 -34.5 2 l-24 0 l0 78 l24 0 q2 0 10 0 q8 0 17.5 2 q9.5 2 20 6.5 q10.5 4.5 18.5 12.5 q13 13 14.5 28.5 q1.5 15.5 1.5 32.5 l0 50 q0 3 0 10 q0 7 -2 15.5 q-2 8.5 -8 16.5 q-6 8 -19 12 q-7 2 -13.5 3 q-6.5 1 -8.5 1 q-3 0 -9.5 -1 q-6.5 -1 -14.5 -4 q-8 -3 -15 -9.5 q-7 -6.5 -10 -17.5 q-2 -5 -2 -10.5 q0 -5.5 0 -6.5 l0 -69 l-110 0 l0 83 q0 6 2 22.5 q2 16.5 11 33.5 q10 21 27.5 34 q17.5 13 38.5 21 q21 8 43.5 11 q22.5 3 43.5 3 q33 0 58 -6.5 q25 -6.5 43 -17 q18 -10.5 30 -24 q12 -13.5 18 -27.5 q5 -10 9 -24.5 q4 -14.5 4 -37.5 l0 -75 q0 -20 -2.5 -37.5 q-2.5 -17.5 -17.5 -33.5 q-16 -17 -35 -22.5 q-19 -5.5 -40 -9.5 q20 -3 45 -9.5 q25 -6.5 39 -26.5 q11 -17 13 -38.5 q2 -21.5 2 -40.5 l0 -101 l0 0 Z" /><glyph glyph-name="four" unicode="4" d="M331 126 l0 -126 l-107 0 l0 126 l-203 0 l0 93 l171 449 l139 0 l0 -449 l40 0 l0 -93 l-40 0 ZM119 219 l105 0 l7 331 l-112 -331 Z" /><glyph glyph-name="five" unicode="5" d="M367 155 q0 -27 -2.5 -41.5 q-2.5 -14.5 -6.5 -28.5 q-11 -36 -33.5 -55 q-22.5 -19 -47 -27.5 q-24.5 -8.5 -46 -10 q-21.5 -1.5 -30.5 -1.5 q-4 0 -17 0.5 q-13 0.5 -30.5 3 q-17.5 2.5 -37.5 9 q-20 6.5 -36 18.5 q-19 13 -29.5 31 q-10.5 18 -15.5 34.5 q-5 16.5 -6 30.5 q-1 14 -1 20 l0 69 l115 0 l0 -68 q0 -3 0 -10 q0 -7 2 -15 q3 -10 13.5 -21 q10.5 -11 35.5 -11 q23 0 34.5 9 q11.5 9 15.5 18 q3 7 4 14 q1 7 1 14 l0 165 q0 18 -2.5 36.5 q-2.5 18.5 -20.5 29.5 q-5 3 -11.5 5.5 q-6.5 2.5 -18.5 2.5 q-10 0 -27.5 -6.5 q-17.5 -6.5 -28.5 -31.5 q-3 -7 -4.5 -12 q-1.5 -5 -3.5 -17 l-92 0 l7 356 l310 0 l0 -100 l-216 0 l-2 -136 q11 8 35 21.5 q24 13.5 63 13.5 q30 0 52 -9 q22 -9 36.5 -21.5 q14.5 -12.5 22.5 -27 q8 -14.5 12 -25.5 q4 -11 5.5 -23.5 q1.5 -12.5 1.5 -37.5 l0 -165 l0 0 Z" /><glyph glyph-name="six" unicode="6" d="M367 145 q0 -5 -0.5 -26.5 q-0.5 -21.5 -8.5 -41.5 q-6 -16 -17.5 -31.5 q-11.5 -15.5 -30.5 -27.5 q-19 -12 -46 -19.5 q-27 -7.5 -64 -7.5 q-6 0 -21 0.5 q-15 0.5 -34 5 q-19 4.5 -39.5 13.5 q-20.5 9 -37.5 26 q-14 14 -20.5 26.5 q-6.5 12.5 -8.5 19.5 q-8 20 -8 40 q0 20 0 25 l0 383 q0 10 3 33 q3 23 18 47 q12 19 29.5 31.5 q17.5 12.5 37.5 19.5 q20 7 42 10 q22 3 43 3 q17 0 37 -2.5 q20 -2.5 39 -9 q19 -6.5 35.5 -17 q16.5 -10.5 26.5 -26.5 q10 -16 15 -33.5 q5 -17.5 5 -50.5 l0 -46 l-110 0 l0 36 q0 14 -2.5 30 q-2.5 16 -18.5 24 q-9 5 -18 5.5 q-9 0.5 -12 0.5 q-22 0 -33.5 -7.5 q-11.5 -7.5 -16.5 -18 q-5 -10.5 -5.5 -21.5 q-0.5 -11 -0.5 -18 l0 -131 q6 5 15.5 12 q9.5 7 22.5 13.5 q13 6.5 30 11 q17 4.5 38 4.5 q29 0 49 -8.5 q20 -8.5 33 -21 q13 -12.5 19.5 -26.5 q6.5 -14 9.5 -24 q2 -9 3.5 -20 q1.5 -11 1.5 -30 l0 -155 ZM253 263 q0 26 -4 39.5 q-4 13.5 -15 21.5 q-4 3 -12 6.5 q-8 3.5 -20 3.5 q-4 0 -13 -1.5 q-9 -1.5 -19 -6.5 q-18 -11 -21.5 -25.5 q-3.5 -14.5 -3.5 -32.5 l0 -109 q0 -17 2 -33.5 q2 -16.5 15 -29.5 q11 -11 22.5 -12.5 q11.5 -1.5 17.5 -1.5 q23 0 33 10.5 q10 10.5 13 18.5 q2 5 3.5 12.5 q1.5 7.5 1.5 18.5 l0 121 Z" /><glyph glyph-name="seven" unicode="7" d="M379 566 q-7 -11 -13.5 -22.5 q-6.5 -11.5 -12.5 -23.5 q-14 -26 -39 -81.5 q-25 -55.5 -47 -130.5 q-5 -15 -13 -46 q-8 -31 -16.5 -72 q-8.5 -41 -14 -90 q-5.5 -49 -5.5 -100 l-125 0 q0 15 1.5 30.5 q1.5 15.5 4 33.5 q2.5 18 6.5 40.5 q4 22.5 11 52.5 q14 63 32 119 q18 56 36 102.5 q18 46.5 34 81.5 q16 35 27 56 q7 14 14 26 q7 12 14 25 l-156 0 l0 -78 l-97 0 l0 176 l359 0 l0 -99 l0 0 Z" /><glyph glyph-name="eight" unicode="8" d="M365 153 q0 -35 -6.5 -64 q-6.5 -29 -34.5 -55 q-18 -16 -36.5 -25 q-18.5 -9 -35.5 -13 q-17 -4 -31 -4.5 q-14 -0.5 -22 -0.5 q-35 0 -61.5 7.5 q-26.5 7.5 -46 19 q-19.5 11.5 -31.5 26 q-12 14.5 -19 29.5 q-5 13 -9 28 q-4 15 -4 42 l0 85 q0 19 1 28.5 q1 9.5 3 19.5 q7 34 25.5 49.5 q18.5 15.5 47.5 29.5 q-1 1 -12.5 6.5 q-11.5 5.5 -20.5 12.5 q-14 11 -21 24 q-7 13 -10 25.5 q-3 12.5 -3.5 22.5 q-0.5 10 -0.5 16 l0 70 q0 26 4.5 48.5 q4.5 22.5 21.5 43.5 q7 9 15.5 16 q8.5 7 18.5 13 q14 8 30.5 12 q16.5 4 30.5 6 q14 2 25 2.5 q11 0.5 15 0.5 q68 0 103 -23.5 q35 -23.5 47 -52.5 q5 -12 7.5 -27.5 q2.5 -15.5 2.5 -42.5 l0 -58 q0 -29 -2 -42 q-2 -13 -10 -27 q-8 -14 -20 -23 q-12 -9 -38 -23 q19 -8 29 -14 q10 -6 18 -13 q20 -17 25 -39 q5 -22 5 -46 l0 -90 ZM248 529 q0 15 -4 27 q-4 12 -18 20 q-9 5 -16.5 6 q-7.5 1 -11.5 1 q-16 0 -30 -7 q-14 -7 -19 -24 q-2 -6 -2 -11.5 q0 -5.5 0 -7.5 l0 -81 q0 -15 2 -24 q2 -9 6 -15 q5 -8 15 -13 q10 -5 29 -5 q11 0 20 2.5 q9 2.5 17 11.5 q10 11 11 23.5 q1 12.5 1 26.5 l0 70 ZM252 247 q0 16 -2.5 30.5 q-2.5 14.5 -17.5 25.5 q-10 7 -19.5 8 q-9.5 1 -13.5 1 q-22 0 -33.5 -8 q-11.5 -8 -16.5 -19 q-5 -11 -5.5 -22 q-0.5 -11 -0.5 -17 l0 -93 q0 -29 6.5 -43 q6.5 -14 18.5 -20 q14 -7 29 -7 q4 0 13 1 q9 1 18 6 q17 9 20.5 25 q3.5 16 3.5 32 l0 100 Z" /><glyph glyph-name="nine" unicode="9" d="M364 142 q0 -26 -4.5 -48 q-4.5 -22 -20.5 -44 q-26 -36 -67.5 -47.5 q-41.5 -11.5 -83.5 -11.5 q-6 0 -21 0.5 q-15 0.5 -34.5 5 q-19.5 4.5 -39.5 14 q-20 9.5 -36 27.5 q-5 6 -13 17.5 q-8 11.5 -13 29.5 q-5 22 -5 41 l0 53 l115 0 l0 -42 q0 -8 1 -15.5 q1 -7.5 3 -15.5 q4 -10 15 -18.5 q11 -8.5 34 -8.5 q3 0 10.5 0.5 q7.5 0.5 16 3.5 q8.5 3 16.5 10 q8 7 11 19 q2 5 2 10 q0 5 0 14 l0 141 q-14 -10 -37.5 -24.5 q-23.5 -14.5 -63.5 -14.5 q-28 0 -48 6.5 q-20 6.5 -33.5 16.5 q-13.5 10 -21.5 22 q-8 12 -12 24 q-3 9 -5.5 19 q-2.5 10 -2.5 29 l0 164 q0 26 4 48 q4 22 18 45 q6 11 15 20 q9 9 19 16 q17 11 44.5 18.5 q27.5 7.5 72.5 7.5 q34 0 59.5 -6 q25.5 -6 44 -16.5 q18.5 -10.5 30.5 -23.5 q12 -13 19 -28 q6 -14 9 -28.5 q3 -14.5 3 -43.5 l0 -386 ZM250 525 q0 16 -3 29.5 q-3 13.5 -18 23.5 q-5 3 -12.5 6 q-7.5 3 -19.5 3 q-22 0 -33.5 -9 q-11.5 -9 -16.5 -20 q-5 -11 -5.5 -22.5 q-0.5 -11.5 -0.5 -17.5 l0 -116 q0 -23 2 -34 q2 -11 11 -22 q5 -5 14 -10 q9 -5 26 -5 q15 0 24 3.5 q9 3.5 14 8.5 q14 12 16 27 q2 15 2 32 l0 123 Z" /><glyph glyph-name="colon" unicode=":" d="M76 381 l0 131 l120 0 l0 -131 l-120 0 ZM76 0 l0 130 l120 0 l0 -130 l-120 0 Z" /><glyph glyph-name="semicolon" unicode=";" d="M75 382 l0 130 l119 0 l0 -130 l-119 0 ZM112 -135 l-45 0 l71 135 l-63 0 l0 130 l119 0 l0 -130 l-82 -135 Z" /><glyph glyph-name="question" unicode="?" d="M389 521 q0 -27 -6.5 -53.5 q-6.5 -26.5 -16.5 -40.5 l-68 -99 q-20 -30 -29.5 -46.5 q-9.5 -16.5 -11.5 -34.5 q-2 -9 -2 -18 q0 -9 0 -17 l0 -22 l-113 0 l0 35 q0 13 0 20 q0 7 1 13 q3 26 11 42 q8 16 22 38 l66 102 q6 9 11 17 q5 8 9 17 q4 9 6 20 q2 11 2 28 l0 63 q0 4 -1 12 q-1 8 -5.5 16.5 q-4.5 8.5 -13.5 14.5 q-9 6 -25 6 q-29 0 -39 -15 q-10 -15 -10 -39 l0 -117 l-111 0 l0 74 q0 5 0.5 26 q0.5 21 3.5 41 q4 22 13 42 q9 20 27 35.5 q18 15.5 47.5 24.5 q29.5 9 74.5 9 q5 0 17.5 0 q12.5 0 29 -3 q16.5 -3 34.5 -9 q18 -6 34 -18 q5 -3 14 -12.5 q9 -9.5 16 -23.5 q7 -14 10 -34.5 q3 -20.5 3 -53.5 l0 -40 ZM142 0 l0 130 l116 0 l0 -130 l-116 0 Z" /><glyph glyph-name="at" unicode="@" d="M793 432 q0 -71 -20 -137 q-20 -66 -53.5 -116.5 q-33.5 -50.5 -77.5 -80.5 q-44 -30 -91 -30 q-36 0 -59.5 18 q-23.5 18 -29.5 50 q-56 -68 -126 -68 q-63 0 -99 44 q-36 44 -36 120 q0 58 18 111 q18 53 48.5 93 q30.5 40 70.5 64 q40 24 84 24 q24 0 47 -9 q17 -7 28.5 -17.5 q11.5 -10.5 27.5 -33.5 l10 40 l89 0 l-35 -159 q-17 -76 -24 -113.5 q-7 -37.5 -7 -52.5 q0 -27 20 -27 q17 0 44 27 q19 21 35.5 49.5 q16.5 28.5 27.5 60.5 q11 32 17.5 67 q6.5 35 6.5 69 q0 101 -58.5 157.5 q-58.5 56.5 -162.5 56.5 q-74 0 -140 -32.5 q-66 -32.5 -116 -87.5 q-50 -55 -79.5 -128 q-29.5 -73 -29.5 -155 q0 -63 19.5 -114 q19.5 -51 55.5 -86 q39 -38 96.5 -59 q57.5 -21 120.5 -21 q87 0 170 37 q83 37 155 109 l45 -62 q-21 -19 -36.5 -32.5 q-15.5 -13.5 -29 -24 q-13.5 -10.5 -27 -19 q-13.5 -8.5 -29.5 -18.5 q-60 -35 -120.5 -51.5 q-60.5 -16.5 -132.5 -16.5 q-33 0 -63 4 q-30 4 -57 12 q-45 13 -87.5 37 q-42.5 24 -71.5 53 q-93 90 -93 249 q0 101 35 188.5 q35 87.5 96 152.5 q61 65 144 102.5 q83 37.5 178 37.5 q67 0 122.5 -20.5 q55.5 -20.5 95.5 -58 q40 -37.5 62 -89 q22 -51.5 22 -114.5 ZM490 350 q0 39 -18 62 q-18 23 -48 23 q-23 0 -44.5 -16.5 q-21.5 -16.5 -38.5 -43.5 q-17 -27 -27 -62.5 q-10 -35.5 -10 -72.5 q0 -38 16 -60 q16 -22 45 -22 q20 0 42 13.5 q22 13.5 39 38.5 q9 13 17 30.5 q8 17.5 14 36 q6 18.5 9.5 37.5 q3.5 19 3.5 36 Z" /><glyph glyph-name="A" unicode="a" d="M296 0 l-17 115 l-120 0 l-19 -115 l-130 0 l137 706 l149 0 l132 -706 l-132 0 ZM222 527 l-47 -303 l90 0 l-43 303 Z" /><glyph glyph-name="B" unicode="b" d="M436 151 q0 -8 -0.5 -16 q-0.5 -8 -0.5 -16 q0 -6 -2 -19.5 q-2 -13.5 -8 -29.5 q-6 -16 -18.5 -31 q-12.5 -15 -33.5 -25 q-23 -11 -49 -12.5 q-26 -1.5 -51 -1.5 l-223 0 l0 706 l219 0 q32 0 61.5 -3 q29.5 -3 55.5 -24 q30 -23 36 -53 q6 -30 6 -64 l0 -63 q0 -1 0 -6 q0 -5 -0.5 -12.5 q-0.5 -7.5 -1.5 -16 q-1 -8.5 -2 -15.5 q-5 -22 -15 -35 q-10 -13 -21 -20 q-11 -7 -22.5 -10 q-11.5 -3 -19.5 -4 q31 -6 45.5 -14 q14.5 -8 24.5 -20 q17 -22 18.5 -46 q1.5 -24 1.5 -49 l0 -100 ZM299 540 q0 13 -0.5 18.5 q-0.5 5.5 -2.5 12.5 q-7 25 -25.5 29.5 q-18.5 4.5 -38.5 4.5 l-52 0 l0 -178 l47 0 q14 0 21.5 0.5 q7.5 0.5 13.5 1.5 q19 4 28 17.5 q9 13.5 9 45.5 l0 48 ZM308 256 q0 16 -0.5 23.5 q-0.5 7.5 -3.5 15.5 q-8 22 -28 26 q-20 4 -40 4 l-56 0 l0 -223 l55 0 q8 0 16.5 0 q8.5 0 16.5 2 q21 3 30.5 18 q9.5 15 9.5 51 l0 83 Z" /><glyph glyph-name="C" unicode="c" d="M430 165 q0 -21 -1.5 -42.5 q-1.5 -21.5 -8.5 -41.5 q-13 -37 -40.5 -56.5 q-27.5 -19.5 -56.5 -28.5 q-29 -9 -53 -10 q-24 -1 -30 -1 q-23 0 -41.5 2.5 q-18.5 2.5 -25.5 4.5 q-39 8 -71 27 q-32 19 -48 57 q-8 20 -9 37 q-1 17 -1 37 l0 384 q0 9 0.5 18.5 q0.5 9.5 1.5 18.5 q2 34 12.5 60.5 q10.5 26.5 37.5 48.5 q22 17 54.5 29 q32.5 12 91.5 12 q34 0 68.5 -6 q34.5 -6 63.5 -26 q14 -10 25.5 -23 q11.5 -13 18.5 -29 q8 -17 10 -32.5 q2 -15.5 2 -47.5 l0 -108 l-128 0 l0 89 q0 20 -2.5 35.5 q-2.5 15.5 -9.5 26 q-7 10.5 -20 16 q-13 5.5 -35 5.5 q-38 0 -49 -21.5 q-11 -21.5 -11 -55.5 l0 -378 q0 -17 2.5 -32 q2.5 -15 9.5 -25.5 q7 -10.5 19.5 -16.5 q12.5 -6 32.5 -6 q22 0 34.5 6 q12.5 6 19 17 q6.5 11 8 27.5 q1.5 16.5 1.5 36.5 l0 92 l128 0 l0 -100 l0 0 Z" /><glyph glyph-name="D" unicode="d" d="M438 190 q0 -10 0 -19.5 q0 -9.5 -1 -19.5 q-3 -56 -24 -86.5 q-21 -30.5 -42 -42.5 q-27 -16 -55 -19 q-28 -3 -57 -3 l-209 0 l0 706 l239 0 q14 0 41 -5.5 q27 -5.5 56 -29.5 q36 -31 44 -69 q8 -38 8 -82 l0 -330 ZM308 531 q0 17 -2 32.5 q-2 15.5 -16 27.5 q-13 11 -28.5 11.5 q-15.5 0.5 -30.5 0.5 l-51 0 l0 -500 l46 0 q9 0 18.5 0 q9.5 0 18.5 2 q16 3 25 10 q9 7 13.5 17 q4.5 10 5.5 22 q1 12 1 25 l0 352 Z" /><glyph glyph-name="E" unicode="e" d="M50 0 l0 706 l342 0 l0 -107 l-212 0 l0 -166 l200 0 l0 -107 l-200 0 l0 -217 l222 0 l0 -109 l-352 0 Z" /><glyph glyph-name="F" unicode="f" d="M181 597 l0 -177 l202 0 l0 -105 l-202 0 l0 -315 l-131 0 l0 706 l346 0 l0 -109 l-215 0 Z" /><glyph glyph-name="G" unicode="g" d="M322 0 l0 42 q-11 -11 -16 -16.5 q-5 -5.5 -12 -10.5 q-14 -11 -29 -17 q-15 -6 -28.5 -9 q-13.5 -3 -24 -3.5 q-10.5 -0.5 -16.5 -0.5 q-33 0 -57.5 8 q-24.5 8 -41.5 20 q-17 12 -27.5 26.5 q-10.5 14.5 -15.5 27.5 q-6 15 -8 30.5 q-2 15.5 -2 31.5 l0 402 q0 24 2.5 47.5 q2.5 23.5 10.5 46.5 q11 29 31.5 48 q20.5 19 46.5 29.5 q26 10.5 54.5 14.5 q28.5 4 55.5 4 q21 0 45.5 -2.5 q24.5 -2.5 47.5 -10 q23 -7.5 43 -20 q20 -12.5 33 -32.5 q15 -23 17 -45 q2 -22 2 -30 l0 -103 l-130 0 l0 68 q0 18 -2 35 q-2 17 -20 28 q-5 3 -14.5 6.5 q-9.5 3.5 -24.5 3.5 q-5 0 -17.5 -1.5 q-12.5 -1.5 -23.5 -9.5 q-15 -11 -20 -29 q-5 -18 -5 -51 l0 -373 q0 -3 0 -14 q0 -11 5 -23 q5 -11 16.5 -21.5 q11.5 -10.5 39.5 -10.5 q5 0 21.5 1.5 q16.5 1.5 29.5 16.5 q12 13 13.5 29.5 q1.5 16.5 1.5 33.5 l0 110 l-80 0 l0 106 l210 0 l0 -383 l-111 0 Z" /><glyph glyph-name="H" unicode="h" d="M299 0 l0 323 l-119 0 l0 -323 l-130 0 l0 706 l130 0 l0 -277 l119 0 l0 277 l130 0 l0 -706 l-130 0 Z" /><glyph glyph-name="I" unicode="i" d="M50 0 l0 706 l129 0 l0 -706 l-129 0 Z" /><glyph glyph-name="J" unicode="j" d="M346 160 q0 -5 -1 -28.5 q-1 -23.5 -7 -46.5 q-11 -39 -36.5 -59.5 q-25.5 -20.5 -53 -29.5 q-27.5 -9 -51 -10 q-23.5 -1 -31.5 -1 q-5 0 -17.5 0.5 q-12.5 0.5 -29.5 3.5 q-17 3 -35.5 9 q-18.5 6 -34.5 18 q-8 6 -19.5 18.5 q-11.5 12.5 -19.5 35.5 q-6 19 -7.5 35.5 q-1.5 16.5 -1.5 23.5 l0 95 l121 0 l0 -67 q0 -27 4 -41 q4 -14 18 -22 q12 -6 24 -6 q5 0 12.5 1.5 q7.5 1.5 15.5 7.5 q12 9 15.5 23.5 q3.5 14.5 3.5 40.5 l0 545 l131 0 l0 -546 l0 0 Z" /><glyph glyph-name="K" unicode="k" d="M320 0 l-138 345 l0 -345 l-132 0 l0 706 l132 0 l0 -275 l141 275 l134 0 l-161 -305 l165 -401 l-141 0 Z" /><glyph glyph-name="L" unicode="l" d="M50 0 l0 706 l130 0 l0 -599 l191 0 l0 -107 l-321 0 Z" /><glyph glyph-name="M" unicode="m" d="M508 0 l12 612 l-114 -612 l-121 0 l-117 612 l10 -612 l-128 0 l0 706 l212 0 l83 -494 l84 494 l209 0 l0 -706 l-130 0 Z" /><glyph glyph-name="N" unicode="n" d="M286 0 l-125 529 l11 -529 l-122 0 l0 706 l167 0 l127 -518 l-13 518 l119 0 l0 -706 l-164 0 Z" /><glyph glyph-name="O" unicode="o" d="M435 151 q0 -34 -7.5 -64 q-7.5 -30 -33.5 -55 q-32 -29 -72 -38 q-40 -9 -81 -9 q-39 0 -77 7.5 q-38 7.5 -70 33.5 q-16 13 -24 24.5 q-8 11.5 -11 19.5 q-9 19 -12 40 q-3 21 -3 41 l0 396 q0 6 0.5 20.5 q0.5 14.5 4 33.5 q3.5 19 12.5 38.5 q9 19.5 27 35.5 q20 17 57 31.5 q37 14.5 97 14.5 q76 0 118.5 -26 q42.5 -26 58.5 -57 q8 -17 12 -37 q4 -20 4 -57 l0 -393 ZM304 535 q0 3 0 22 q0 19 -8 35 q-5 10 -17 20.5 q-12 10.5 -37 10.5 q-5 0 -17.5 -2 q-12.5 -2 -24.5 -11 q-11 -8 -16 -17 q-5 -9 -7 -19.5 q-2 -10.5 -2 -21.5 q0 -11 0 -22 l0 -357 q0 -16 1 -33.5 q1 -17.5 11 -31.5 q6 -8 14 -12 q8 -4 16 -6 q8 -2 14.5 -2.5 q6.5 -0.5 8.5 -0.5 q5 0 17 2 q12 2 24 10 q18 13 20.5 32 q2.5 19 2.5 39 l0 365 Z" /><glyph glyph-name="P" unicode="p" d="M431 454 q0 -50 -4 -77.5 q-4 -27.5 -21 -47.5 q-16 -20 -41.5 -27.5 q-25.5 -7.5 -73.5 -7.5 l-110 0 l0 -294 l-131 0 l0 706 l262 0 q3 0 13.5 -0.5 q10.5 -0.5 21.5 -2.5 q32 -7 48 -23 q16 -16 21 -27 q11 -23 13 -53 q2 -30 2 -53 l0 -93 ZM303 530 q0 15 0 30 q0 15 -10 27 q-6 7 -13.5 10.5 q-7.5 3.5 -14.5 4.5 q-7 1 -12.5 0.5 q-5.5 -0.5 -7.5 -0.5 l-64 0 l0 -207 l63 0 q20 0 32 3 q12 3 18 11 q7 9 8 23.5 q1 14.5 1 25.5 l0 72 Z" /><glyph glyph-name="Q" unicode="q" d="M405 -93 l-89 91 q-3 -1 -6 -2 q-3 -1 -6 -2 q-9 -2 -29.5 -5.5 q-20.5 -3.5 -46.5 -3.5 q-39 0 -78.5 10.5 q-39.5 10.5 -68.5 39.5 q-11 12 -17 22 q-6 10 -8 16 q-9 20 -10.5 39.5 q-1.5 19.5 -1.5 25.5 l0 412 q0 23 2.5 43.5 q2.5 20.5 12.5 41.5 q8 16 22.5 31.5 q14.5 15.5 36.5 27.5 q22 12 52.5 19.5 q30.5 7.5 69.5 7.5 q37 0 75.5 -9 q38.5 -9 68.5 -34 q5 -4 15 -14.5 q10 -10.5 18 -26.5 q8 -17 12 -36.5 q4 -19.5 4 -56.5 l0 -397 q0 -36 -5 -53 q-5 -17 -14 -34 l71 -74 l-80 -79 ZM302 558 q0 7 -1.5 18 q-1.5 11 -7.5 21.5 q-6 10.5 -18.5 17.5 q-12.5 7 -34.5 7 q-5 0 -14 -1 q-9 -1 -20 -6 q-23 -11 -27 -32 q-4 -21 -4 -42 l0 -390 q0 -9 1.5 -19.5 q1.5 -10.5 8 -20 q6.5 -9.5 19 -16 q12.5 -6.5 34.5 -6.5 q25 0 38.5 9.5 q13.5 9.5 19 22 q5.5 12.5 6 25.5 q0.5 13 0.5 21 l0 391 Z" /><glyph glyph-name="R" unicode="r" d="M329 0 l-100 313 l-49 0 l0 -313 l-130 0 l0 706 l260 0 q65 0 96 -30.5 q31 -30.5 31 -95.5 l0 -128 q0 -53 -18 -80 q-18 -27 -65 -41 l110 -331 l-135 0 ZM308 547 q0 33 -13 45.5 q-13 12.5 -47 12.5 l-68 0 l0 -188 l68 0 q34 0 47 14.5 q13 14.5 13 52.5 l0 63 Z" /><glyph glyph-name="S" unicode="s" d="M424 197 q0 -20 0 -35 q0 -15 -1 -27 q-1 -12 -2 -22 q-1 -10 -4 -20 q-6 -21 -18.5 -40.5 q-12.5 -19.5 -34 -34.5 q-21.5 -15 -53.5 -24 q-32 -9 -77 -9 q-38 0 -75.5 7.5 q-37.5 7.5 -69.5 32.5 q-17 14 -25 27 q-8 13 -12 21 q-6 15 -10 29 q-4 14 -4 44 l0 103 l129 0 l0 -82 q0 -20 2 -40 q2 -20 21 -32 q6 -4 15.5 -7 q9.5 -3 24.5 -3 q17 0 27.5 3.5 q10.5 3.5 17.5 9.5 q14 11 16.5 34.5 q2.5 23.5 2.5 59.5 q0 7 -1 27 q-1 20 -13 38 q-8 11 -17 18 q-9 7 -13 10 l-123 83 q-20 14 -32.5 25 q-12.5 11 -26.5 33 q-11 19 -18 43 q-7 24 -7 69 q0 4 0 14.5 q0 10.5 1.5 24 q1.5 13.5 5 29 q3.5 15.5 10.5 29.5 q15 32 42 49.5 q27 17.5 55 25.5 q28 8 50.5 9.5 q22.5 1.5 27.5 1.5 q8 0 30.5 -1.5 q22.5 -1.5 49 -10 q26.5 -8.5 52 -27.5 q25.5 -19 39.5 -54 q3 -7 5 -12 q2 -5 3.5 -11.5 q1.5 -6.5 2 -14.5 q0.5 -8 0.5 -21 l0 -70 l-130 0 l0 72 q0 8 -2 17 q-2 9 -8 16.5 q-6 7.5 -17.5 12.5 q-11.5 5 -30.5 5 q-23 0 -40.5 -13 q-17.5 -13 -17.5 -57 q0 -1 0 -8.5 q0 -7.5 1 -18 q1 -10.5 4 -21.5 q3 -11 9 -20 q5 -7 27 -23 l126 -87 q7 -5 24.5 -19.5 q17.5 -14.5 33.5 -35.5 q12 -15 17.5 -29 q5.5 -14 8 -28.5 q2.5 -14.5 2.5 -30 q0 -15.5 0 -34.5 Z" /><glyph glyph-name="T" unicode="t" d="M263 604 l0 -604 l-131 0 l0 604 l-130 0 l0 102 l392 0 l0 -102 l-131 0 Z" /><glyph glyph-name="U" unicode="u" d="M431 159 q0 -32 -5.5 -59 q-5.5 -27 -26.5 -54 q-19 -24 -44.5 -37 q-25.5 -13 -49.5 -18 q-24 -5 -43.5 -5.5 q-19.5 -0.5 -25.5 -0.5 q-39 0 -77 10.5 q-38 10.5 -67 40.5 q-5 5 -14 17.5 q-9 12.5 -16 30.5 q-8 19 -10.5 39 q-2.5 20 -2.5 39 l0 544 l130 0 l0 -525 q0 -14 1 -28 q1 -14 6 -27 q5 -11 13 -17 q8 -6 16 -9 q8 -3 15 -3.5 q7 -0.5 10 -0.5 q5 0 16 1.5 q11 1.5 22 9.5 q19 13 20.5 34.5 q1.5 21.5 1.5 40.5 l0 524 l131 0 l0 -547 l0 0 Z" /><glyph glyph-name="V" unicode="v" d="M277 0 l-131 0 l-140 706 l138 0 l69 -467 l64 467 l133 0 l-133 -706 Z" /><glyph glyph-name="W" unicode="w" d="M561 0 l-137 0 l-68 482 l-76 -482 l-139 0 l-129 706 l135 0 l71 -532 l76 532 l123 0 l74 -532 l74 532 l132 0 l-136 -706 Z" /><glyph glyph-name="X" unicode="x" d="M322 0 l-83 245 l-84 -245 l-141 0 l156 376 l-139 330 l142 0 l67 -199 l68 199 l142 0 l-141 -334 l156 -372 l-143 0 Z" /><glyph glyph-name="Y" unicode="y" d="M275 209 l0 -209 l-133 0 l0 218 l-141 488 l137 0 l72 -356 l69 356 l137 0 l-141 -497 Z" /><glyph glyph-name="Z" unicode="z" d="M165 110 l227 0 l0 -110 l-369 0 l0 82 l225 515 l-196 0 l0 109 l344 0 l0 -70 l-231 -526 Z" /><glyph glyph-name="a" unicode="a" d="M250 0 q-8 8 -10 17 q-2 9 -4 28 q-5 -5 -9 -9.5 q-4 -4.5 -9 -9.5 q-10 -10 -30 -23.5 q-20 -13.5 -55 -13.5 q-8 0 -26 2.5 q-18 2.5 -36 16.5 q-16 12 -24 28.5 q-8 16.5 -11.5 35 q-3.5 18.5 -3.5 37.5 q0 19 0 36 q0 28 2 55 q2 27 22 50 q11 13 25 21.5 q14 8.5 29 16.5 l124 62 l0 30 q0 23 -3 35 q-3 12 -13 19 q-4 2 -10 4.5 q-6 2.5 -16 2.5 q-4 0 -17 -2.5 q-13 -2.5 -20 -17.5 q-3 -7 -3.5 -19 q-0.5 -12 -0.5 -29 l0 -19 l-109 0 l0 58 q0 9 4.5 31 q4.5 22 24.5 42 q16 16 47.5 27 q31.5 11 81.5 11 q6 0 23.5 -1 q17.5 -1 39 -7 q21.5 -6 42.5 -19 q21 -13 35 -37 q9 -16 10.5 -29 q1.5 -13 1.5 -20 l0 -285 q0 -11 0 -26.5 q0 -15.5 1 -32.5 q1 -17 4 -32.5 q3 -15.5 10 -24.5 q1 -4 8 -9 l-125 0 ZM233 258 l-58 -38 q-8 -6 -10 -8 q-11 -11 -14 -27.5 q-3 -16.5 -3 -46.5 q0 -29 5.5 -44.5 q5.5 -15.5 23.5 -14.5 q13 0 23 5 q10 5 20 13 l13 11 l0 150 Z" /><glyph glyph-name="b" unicode="b" d="M379 113 q0 -21 -2.5 -32.5 q-2.5 -11.5 -5.5 -20.5 q-12 -33 -40 -52 q-28 -19 -63 -19 q-11 0 -36.5 6 q-25.5 6 -49.5 29 q-8 8 -12 13.5 q-4 5.5 -6 9.5 l-1 -47 l-119 0 l0 706 l119 0 l0 -234 q5 5 10 9 q5 4 10 8 q3 2 11.5 7.5 q8.5 5.5 20 11 q11.5 5.5 26 10 q14.5 4.5 29.5 4.5 q32 0 60.5 -18.5 q28.5 -18.5 39.5 -49.5 q5 -14 7 -25.5 q2 -11.5 2 -25.5 l0 -290 ZM258 373 q0 13 -2 25 q-2 12 -12 21 q-12 12 -31 12 q-8 0 -23.5 -4.5 q-15.5 -4.5 -23.5 -26.5 q-2 -7 -3 -14 q-1 -7 -1 -21 l0 -207 q0 -3 0 -9 q0 -6 1 -14 q3 -23 14 -34 q11 -11 35 -11 q5 0 15 1.5 q10 1.5 18 12.5 q8 10 10.5 21.5 q2.5 11.5 2.5 32.5 l0 215 Z" /><glyph glyph-name="c" unicode="c" d="M367 145 q0 -6 0 -17.5 q0 -11.5 -2.5 -25.5 q-2.5 -14 -8.5 -29.5 q-6 -15.5 -18 -30.5 q-16 -20 -36.5 -31 q-20.5 -11 -40 -15.5 q-19.5 -4.5 -35 -5 q-15.5 -0.5 -21.5 -0.5 q-56 0 -87.5 14.5 q-31.5 14.5 -48.5 33.5 q-2 3 -9 13 q-7 10 -12 23 q-6 16 -8 32 q-2 16 -2 33 l0 227 q0 28 5.5 51.5 q5.5 23.5 22.5 46.5 q16 21 38 33 q22 12 42 17.5 q20 5.5 36.5 6.5 q16.5 1 22.5 1 q4 0 24 -1 q20 -1 44 -8.5 q24 -7.5 48 -23 q24 -15.5 36 -44.5 q5 -11 7.5 -25.5 q2.5 -14.5 2.5 -40.5 l0 -61 l-117 0 l0 62 q0 10 -0.5 15 q-0.5 5 -1.5 10 q-2 8 -11.5 20.5 q-9.5 12.5 -31.5 11.5 q-11 0 -17.5 -2.5 q-6.5 -2.5 -10.5 -4.5 q-12 -8 -16.5 -22 q-4.5 -14 -4.5 -40 l0 -223 q0 -14 0.5 -21 q0.5 -7 2.5 -14 q5 -16 16.5 -24 q11.5 -8 27.5 -8 q2 0 10 1 q8 1 16 6 q14 10 17 27 q3 17 3 32 l0 59 l118 0 l0 -58 l0 0 Z" /><glyph glyph-name="d" unicode="d" d="M252 0 l1 50 q-5 -6 -12 -16.5 q-7 -10.5 -19 -20.5 q-12 -10 -29 -16.5 q-17 -6.5 -40 -6.5 q-27 0 -44.5 8 q-17.5 8 -26.5 14 q-14 10 -22.5 22.5 q-8.5 12.5 -13 29 q-4.5 16.5 -6 38.5 q-1.5 22 -1.5 52 l0 233 q0 7 0 21.5 q0 14.5 4.5 31.5 q4.5 17 15.5 35 q11 18 32 31 q7 4 22 10.5 q15 6.5 37 6.5 q33 0 57 -16 q24 -16 46 -36 l0 235 l119 0 l0 -706 l-120 0 ZM253 372 q0 17 -3 29.5 q-3 12.5 -19 21.5 q-10 5 -17 6.5 q-7 1.5 -12 1.5 q-4 0 -11 -1.5 q-7 -1.5 -15 -6.5 q-15 -11 -17 -25.5 q-2 -14.5 -2 -31.5 l0 -218 q0 -23 3 -33 q3 -10 14 -17 q3 -2 11 -5 q8 -3 18 -3 q27 0 41 20 q5 8 7 16.5 q2 8.5 2 25.5 l0 220 Z" /><glyph glyph-name="e" unicode="e" d="M157 230 l0 -84 q0 -14 0.5 -20.5 q0.5 -6.5 2.5 -13.5 q6 -20 19.5 -24.5 q13.5 -4.5 21.5 -4.5 q29 0 38 28 q2 5 3 14 q1 9 1 18 q0 9 0 16 q0 7 0 10 l115 0 l0 -41 q0 -14 -0.5 -23.5 q-0.5 -9.5 -4.5 -22.5 q-8 -27 -23 -45 q-15 -18 -35 -28.5 q-20 -10.5 -44.5 -14.5 q-24.5 -4 -49.5 -4 q-39 0 -66 9 q-27 9 -45 23 q-18 14 -28 31.5 q-10 17.5 -15 34.5 q-5 19 -7 40.5 q-2 21.5 -2 26.5 l0 216 q0 6 2 27.5 q2 21.5 11 41.5 q9 22 25.5 38 q16.5 16 37 25.5 q20.5 9.5 43 14 q22.5 4.5 45.5 4.5 q31 0 55.5 -7 q24.5 -7 42 -18 q17.5 -11 29 -23.5 q11.5 -12.5 17.5 -24.5 q7 -14 10.5 -29 q3.5 -15 3.5 -44 l0 -146 l-203 0 ZM242 377 q0 4 -0.5 12.5 q-0.5 8.5 -4 17 q-3.5 8.5 -12 15 q-8.5 6.5 -24.5 6.5 q-16 0 -25 -6 q-9 -6 -13 -14.5 q-4 -8.5 -5 -17 q-1 -8.5 -1 -13.5 l0 -63 l85 0 l0 63 Z" /><glyph glyph-name="f" unicode="f" d="M240 608 q-27 3 -35 1 q-8 -2 -12.5 -7 q-4.5 -5 -6.5 -10 q-2 -5 -2.5 -10 q-0.5 -5 -0.5 -7 l0 -63 l53 0 l0 -79 l-54 0 l0 -433 l-118 0 l0 433 l-53 0 l0 79 l53 0 q0 40 0 59 q0 19 0 27.5 q0 8.5 0.5 12.5 q0.5 4 2.5 15 q3 24 12.5 37 q9.5 13 17.5 20 q21 18 46.5 21.5 q25.5 3.5 52.5 3.5 q11 0 22 -0.5 q11 -0.5 22 -1.5 l0 -98 l0 0 Z" /><glyph glyph-name="g" unicode="g" d="M373 -18 q0 -8 -0.5 -16.5 q-0.5 -8.5 -1.5 -16.5 q0 -7 -2 -19 q-2 -12 -7 -26.5 q-5 -14.5 -15 -29 q-10 -14.5 -28 -26.5 q-15 -11 -45.5 -20.5 q-30.5 -9.5 -75.5 -9.5 q-16 0 -24.5 1 q-8.5 1 -16.5 2 q-6 1 -20.5 4 q-14.5 3 -31 11 q-16.5 8 -32 22 q-15.5 14 -24.5 37 q-5 15 -6.5 31 q-1.5 16 -1.5 32 l118 0 q0 -2 0 -9.5 q0 -7.5 2 -14.5 q2 -8 11.5 -19 q9.5 -11 32.5 -11 q11 0 17 2.5 q6 2.5 10 4.5 q15 8 18 23.5 q3 15.5 3 30.5 l0 79 q-6 -7 -14.5 -15.5 q-8.5 -8.5 -20.5 -16 q-12 -7.5 -29 -13 q-17 -5.5 -40 -5.5 q-23 0 -38 5.5 q-15 5.5 -23 9.5 q-35 19 -42.5 49 q-7.5 30 -7.5 64 l0 271 q0 15 1 28.5 q1 13.5 6 27.5 q3 9 9.5 21.5 q6.5 12.5 18.5 24 q12 11.5 30 19.5 q18 8 44 8 q35 0 58.5 -14 q23.5 -14 47.5 -37 l0 41 l120 0 l0 -530 ZM252 370 q0 4 0 14 q0 10 -4.5 20.5 q-4.5 10.5 -14.5 19 q-10 8.5 -29 8.5 q-3 0 -12 -1 q-9 -1 -17 -8 q-10 -8 -14.5 -18.5 q-4.5 -10.5 -4.5 -33.5 l0 -228 q0 -11 1 -18 q1 -7 3 -12 q3 -10 9 -15.5 q6 -5.5 12.5 -8 q6.5 -2.5 12.5 -3 q6 -0.5 9 -0.5 q19 0 29 7 q10 7 14.5 16.5 q4.5 9.5 5 19 q0.5 9.5 0.5 14.5 l0 227 Z" /><glyph glyph-name="h" unicode="h" d="M254 0 l0 364 q0 16 -0.5 24 q-0.5 8 -3.5 16 q-5 11 -16 17 q-11 6 -24 6 q-24 0 -33.5 -13.5 q-9.5 -13.5 -11.5 -21.5 q-2 -6 -2 -10 q0 -4 0 -11 l0 -371 l-119 0 l0 706 l117 0 l1 -235 q5 5 13.5 13.5 q8.5 8.5 21 17 q12.5 8.5 30 14.5 q17.5 6 39.5 6 q35 0 62 -18 q27 -18 38 -52 q3 -9 5 -20 q2 -11 2 -31 l0 -401 l-119 0 Z" /><glyph glyph-name="i" unicode="i" d="M44 586 l0 120 l120 0 l0 -120 l-120 0 ZM44 0 l0 512 l120 0 l0 -512 l-120 0 Z" /><glyph glyph-name="j" unicode="j" d="M45 587 l0 119 l119 0 l0 -119 l-119 0 ZM164 -48 q0 -4 0 -17.5 q0 -13.5 -4 -30.5 q-4 -17 -13.5 -34.5 q-9.5 -17.5 -27.5 -29.5 q-18 -11 -38.5 -14 q-20.5 -3 -40.5 -3 q-7 0 -19 0.5 q-12 0.5 -29 2.5 l0 99 q18 0 26 1.5 q8 1.5 16 8.5 q10 9 10.5 19 q0.5 10 0.5 32 l0 526 l119 0 l0 -560 Z" /><glyph glyph-name="k" unicode="k" d="M272 0 l-110 261 l0 -261 l-118 0 l0 706 l118 0 l0 -369 l98 175 l132 0 l-131 -213 l145 -299 l-134 0 Z" /><glyph glyph-name="l" unicode="l" d="M44 0 l0 706 l120 0 l0 -706 l-120 0 Z" /><glyph glyph-name="m" unicode="m" d="M462 0 l0 379 q0 15 -2 28.5 q-2 13.5 -16 23.5 q-4 2 -10 4.5 q-6 2.5 -15 2.5 q-30 0 -39 -20.5 q-9 -20.5 -9 -44.5 l0 -373 l-118 0 l0 376 q0 16 -1 30 q-1 14 -15 25 q-10 9 -28 9 q-18 0 -27.5 -8.5 q-9.5 -8.5 -13.5 -19 q-4 -10.5 -4.5 -20.5 q-0.5 -10 -0.5 -13 l0 -379 l-118 0 l0 512 l119 0 l0 -34 q5 4 13.5 12 q8.5 8 21.5 15 q13 7 29.5 12.5 q16.5 5.5 36.5 5.5 q21 0 36.5 -6 q15.5 -6 27.5 -14.5 q12 -8.5 19.5 -17 q7.5 -8.5 12.5 -13.5 q15 13 26 21 q11 8 20.5 13 q9.5 5 18 8 q8.5 3 19.5 5 q13 2 20 2.5 q7 0.5 13 0.5 q35 0 62 -18 q27 -18 36 -52 q3 -10 4 -19 q1 -9 1 -27 l0 -406 l-119 0 Z" /><glyph glyph-name="n" unicode="n" d="M255 0 l0 377 q0 24 -3 35.5 q-3 11.5 -15 19.5 q-3 2 -8.5 4 q-5.5 2 -14.5 2 q-21 0 -31.5 -9.5 q-10.5 -9.5 -15 -21.5 q-4.5 -12 -4.5 -23 q0 -11 0 -15 l0 -369 l-119 0 l0 512 l121 0 l-1 -37 q23 23 45 35 q22 12 57 12 q35 0 64.5 -18 q29.5 -18 38.5 -54 q3 -11 3.5 -20.5 q0.5 -9.5 0.5 -29.5 l0 -400 l-118 0 Z" /><glyph glyph-name="o" unicode="o" d="M358 132 q0 -27 -5.5 -48 q-5.5 -21 -23.5 -42 q-17 -20 -37.5 -31 q-20.5 -11 -40 -15.5 q-19.5 -4.5 -35.5 -5 q-16 -0.5 -23 -0.5 q-18 0 -31 1.5 q-13 1.5 -20 3.5 q-8 1 -20.5 5.5 q-12.5 4.5 -27 14 q-14.5 9.5 -27.5 24 q-13 14.5 -20 37.5 q-5 13 -7 27.5 q-2 14.5 -2 41.5 l0 229 q0 26 2.5 39.5 q2.5 13.5 7.5 25.5 q9 24 25.5 40 q16.5 16 37 25.5 q20.5 9.5 43.5 13.5 q23 4 46 4 q6 0 25 -1 q19 -1 42 -8 q23 -7 45 -22.5 q22 -15.5 34 -43.5 q6 -14 9 -28 q3 -14 3 -40 l0 -247 ZM240 386 q0 24 -3.5 36 q-3.5 12 -15.5 20 q-6 5 -12.5 5.5 q-6.5 0.5 -9.5 0.5 q-10 0 -15.5 -2.5 q-5.5 -2.5 -8.5 -4.5 q-14 -11 -16 -25.5 q-2 -14.5 -2 -30.5 l0 -260 q0 -3 0.5 -12 q0.5 -9 4 -18 q3.5 -9 12 -16 q8.5 -7 24.5 -7 q17 0 25.5 7.5 q8.5 7.5 12.5 16.5 q4 9 4 18 q0 9 0 12 l0 260 Z" /><glyph glyph-name="p" unicode="p" d="M379 115 q0 -7 -2.5 -30 q-2.5 -23 -14.5 -46 q-8 -14 -22 -27 q-8 -7 -24 -14.5 q-16 -7.5 -42 -7.5 q-37 0 -61 15 q-24 15 -50 38 l0 -220 l-119 0 l0 689 l119 0 l0 -39 q4 4 14 12 q10 8 23.5 16.5 q13.5 8.5 31 14.5 q17.5 6 38.5 6 q5 0 15 -1 q10 -1 22 -5.5 q12 -4.5 24.5 -12.5 q12.5 -8 23.5 -22 q16 -22 20 -46 q4 -24 4 -48 l0 -272 ZM259 377 q0 22 -5 32 q-5 10 -16 17 q-3 2 -9.5 4.5 q-6.5 2.5 -16.5 2.5 q-16 0 -27 -7 q-15 -9 -18.5 -22.5 q-3.5 -13.5 -3.5 -29.5 l0 -230 q0 -3 0 -11.5 q0 -8.5 4 -17.5 q8 -20 23.5 -24 q15.5 -4 21.5 -4 q19 0 29 8 q10 8 13 16 q4 8 4.5 17.5 q0.5 9.5 0.5 11.5 l0 237 Z" /><glyph glyph-name="q" unicode="q" d="M255 -177 l0 220 q-6 -5 -12 -11 q-6 -6 -13 -11 q-20 -17 -39.5 -24.5 q-19.5 -7.5 -45.5 -7.5 q-26 0 -44 8.5 q-18 8.5 -29.5 20 q-11.5 11.5 -17.5 23.5 q-6 12 -9 21 q-5 16 -6 30.5 q-1 14.5 -1 19.5 l0 279 q0 14 1.5 28 q1.5 14 6.5 28 q12 36 42 55.5 q30 19.5 68 19.5 q20 0 36.5 -5.5 q16.5 -5.5 28.5 -13 q12 -7.5 20.5 -15 q8.5 -7.5 13.5 -12.5 l0 36 l118 0 l0 -689 l-118 0 ZM254 385 q0 2 -0.5 8.5 q-0.5 6.5 -2.5 12.5 q-5 15 -18 22.5 q-13 7.5 -28 7.5 q-8 0 -14 -1.5 q-6 -1.5 -9 -3.5 q-16 -7 -20.5 -18.5 q-4.5 -11.5 -4.5 -27.5 l0 -243 q0 -5 0.5 -14 q0.5 -9 5 -18 q4.5 -9 14 -15.5 q9.5 -6.5 27.5 -6.5 q20 0 30 8 q10 8 14.5 18 q4.5 10 5 20 q0.5 10 0.5 15 l0 236 Z" /><glyph glyph-name="r" unicode="r" d="M278 403 q-7 3 -15.5 5.5 q-8.5 2.5 -23.5 2.5 q-5 0 -18 -1.5 q-13 -1.5 -27 -10.5 q-12 -9 -18.5 -20.5 q-6.5 -11.5 -9.5 -24 q-3 -12.5 -3.5 -26 q-0.5 -13.5 -0.5 -26.5 l0 -302 l-118 0 l0 512 l119 0 l-1 -65 q2 4 6 12 q4 8 12 18 q12 16 26 25.5 q14 9.5 27.5 13.5 q13.5 4 25.5 4.5 q12 0.5 20 0.5 l-1 -118 Z" /><glyph glyph-name="s" unicode="s" d="M341 148 q0 -29 -3.5 -58 q-3.5 -29 -23.5 -54 q-17 -20 -46.5 -33 q-29.5 -13 -84.5 -13 q-21 0 -43 2.5 q-22 2.5 -41.5 10.5 q-19.5 8 -35.5 21.5 q-16 13.5 -25 36.5 q-8 20 -9.5 39.5 q-1.5 19.5 -1.5 26.5 l0 53 l110 0 l0 -40 q0 -13 0.5 -19 q0.5 -6 2.5 -13 q2 -9 11 -21 q9 -12 32 -12 q3 0 11 1 q8 1 16 6 q8 5 14 17 q6 12 6 32 q0 14 -1.5 23 q-1.5 9 -5 16 q-3.5 7 -10.5 13 q-7 6 -18 14 l-100 71 q-36 25 -48.5 52 q-12.5 27 -12.5 71 q0 38 11.5 63.5 q11.5 25.5 32 40.5 q20.5 15 48.5 21 q28 6 63 6 q57 0 88.5 -16.5 q31.5 -16.5 43.5 -38.5 q9 -15 11.5 -30.5 q2.5 -15.5 2.5 -31.5 l0 -57 l-103 0 l0 37 q0 3 -0.5 12 q-0.5 9 -4.5 19 q-4 10 -13 17.5 q-9 7.5 -26 7.5 q-4 0 -9 -0.5 q-5 -0.5 -13 -4.5 q-11 -7 -15 -18 q-4 -11 -4 -23 q0 -23 8.5 -33.5 q8.5 -10.5 25.5 -22.5 l110 -77 q8 -5 16 -14 q8 -9 15 -17 q9 -13 14 -32 q5 -19 5 -51 Z" /><glyph glyph-name="t" unicode="t" d="M263 1 q-10 -2 -24 -4 q-14 -2 -37 -2 q-52 0 -80.5 11.5 q-28.5 11.5 -39.5 36.5 q-7 14 -8.5 29 q-1.5 15 -1.5 30 l0 331 l-65 0 l0 79 l64 0 l0 186 l118 0 l0 -186 l71 0 l0 -79 l-71 0 l0 -292 q0 -12 0.5 -17 q0.5 -5 2.5 -11 q5 -18 20 -23 q15 -5 31 -5 q5 0 10 0.5 q5 0.5 10 1.5 l0 -86 l0 0 Z" /><glyph glyph-name="u" unicode="u" d="M253 0 l0 42 q-5 -5 -14.5 -13.5 q-9.5 -8.5 -23.5 -16.5 q-14 -8 -32 -14.5 q-18 -6.5 -39 -6.5 q-8 0 -25 3 q-17 3 -35 15 q-15 11 -23.5 24.5 q-8.5 13.5 -12 28.5 q-3.5 15 -4 31.5 q-0.5 16.5 -0.5 32.5 l0 386 l120 0 l0 -368 q0 -14 0.5 -26.5 q0.5 -12.5 10.5 -22.5 q13 -13 32 -13 q3 0 12.5 1.5 q9.5 1.5 17.5 8.5 q7 6 10.5 15.5 q3.5 9.5 5 18.5 q1.5 9 1 16 q-0.5 7 -0.5 8 l0 362 l120 0 l0 -512 l-120 0 Z" /><glyph glyph-name="v" unicode="v" d="M230 0 l-116 0 l-113 512 l119 0 l53 -355 l61 355 l119 0 l-123 -512 Z" /><glyph glyph-name="w" unicode="w" d="M443 0 l-112 0 l-50 304 l-60 -304 l-113 0 l-104 512 l116 0 l54 -338 l60 338 l97 0 l54 -338 l58 338 l116 0 l-116 -512 Z" /><glyph glyph-name="x" unicode="x" d="M243 0 l-58 207 l-58 -207 l-123 0 l111 278 l-90 234 l123 0 l44 -171 l46 171 l115 0 l-92 -234 l110 -278 l-128 0 Z" /><glyph glyph-name="y" unicode="y" d="M236 -37 q-8 -40 -17.5 -63.5 q-9.5 -23.5 -22.5 -39.5 q-14 -17 -36.5 -27 q-22.5 -10 -66.5 -10 q-23 0 -38.5 2.5 q-15.5 2.5 -38.5 6.5 l18 94 q6 -2 17 -4.5 q11 -2.5 28 -2.5 q15 0 25.5 7 q10.5 7 16.5 17.5 q6 10.5 8.5 22 q2.5 11.5 3.5 20.5 l1 14 l-133 512 l118 0 l66 -329 l51 329 l117 0 l-117 -549 Z" /><glyph glyph-name="z" unicode="z" d="M24 0 l0 100 l179 316 l-160 0 l0 96 l282 0 l0 -96 l-177 -316 l185 0 l0 -100 l-309 0 Z" /><glyph glyph-name="braceleft" unicode="{" d="M312 -182 q-32 0 -61.5 3.5 q-29.5 3.5 -53.5 14.5 q-24 11 -42 32.5 q-18 21.5 -26 57.5 q-4 17 -5.5 41 q-1.5 24 -1.5 50 q0 26 0.5 50 q0.5 24 0.5 41 q0 27 -1 52 q-1 25 -9 45.5 q-8 20.5 -25 34 q-17 13.5 -50 17.5 l0 77 q11 2 23.5 5 q12.5 3 22.5 9 q15 10 23 26 q8 16 11.5 34.5 q3.5 18.5 4 38 q0.5 19.5 0.5 35.5 l0 91 q0 23 0.5 49 q0.5 26 6.5 49 q9 34 27 54.5 q18 20.5 42 31 q24 10.5 53 14 q29 3.5 60 3.5 l24 0 l0 -75 q-14 -1 -30 -2.5 q-16 -1.5 -30 -6.5 q-15 -6 -23 -18.5 q-8 -12.5 -11.5 -28.5 q-3.5 -16 -4 -32.5 q-0.5 -16.5 -0.5 -29.5 q0 -34 0.5 -67.5 q0.5 -33.5 -1.5 -67.5 q-1 -27 -5 -51.5 q-4 -24.5 -14.5 -44.5 q-10.5 -20 -29.5 -33.5 q-19 -13.5 -50 -18.5 l0 -5 q33 -5 52.5 -20.5 q19.5 -15.5 29.5 -37 q10 -21.5 13 -48 q3 -26.5 4 -54.5 q1 -32 1 -63.5 q0 -31.5 0 -63.5 q0 -15 0.5 -31.5 q0.5 -16.5 5 -31.5 q4.5 -15 14 -27 q9.5 -12 26.5 -17 q13 -4 26.5 -4.5 q13.5 -0.5 26.5 -1.5 l0 -75 l-24 0 Z" /><glyph glyph-name="braceright" unicode="}" d="M336 257 q-10 -2 -21 -3.5 q-11 -1.5 -19 -6.5 q-18 -10 -27.5 -26 q-9.5 -16 -13 -35 q-3.5 -19 -4 -39 q-0.5 -20 -0.5 -38 l0 -99 q0 -22 -0.5 -44.5 q-0.5 -22.5 -5.5 -43.5 q-9 -34 -26.5 -54.5 q-17.5 -20.5 -41 -31.5 q-23.5 -11 -52 -14.5 q-28.5 -3.5 -59.5 -3.5 l-28 0 l0 75 q14 1 29.5 2 q15.5 1 28.5 6 q16 6 24.5 18.5 q8.5 12.5 12.5 28 q4 15.5 4.5 32.5 q0.5 17 0.5 31 q0 33 0 66.5 q0 33.5 1 66.5 q1 27 5 51.5 q4 24.5 14.5 44.5 q10.5 20 29.5 34 q19 14 50 19 l0 5 q-32 5 -50.5 19 q-18.5 14 -29 33.5 q-10.5 19.5 -14.5 44.5 q-4 25 -5 52 q-2 35 -1.5 69 q0.5 34 0.5 69 q0 13 -0.5 27.5 q-0.5 14.5 -3.5 28 q-3 13.5 -10 25.5 q-7 12 -19 20 q-15 10 -32.5 11 q-17.5 1 -34.5 2 l0 75 l24 0 q32 0 61.5 -3.5 q29.5 -3.5 54 -15 q24.5 -11.5 42 -33 q17.5 -21.5 26.5 -57.5 q3 -15 4.5 -39.5 q1.5 -24.5 1.5 -51.5 q0 -27 -0.5 -51.5 q-0.5 -24.5 -0.5 -38.5 q0 -17 0.5 -37.5 q0.5 -20.5 5 -40.5 q4.5 -20 13.5 -36.5 q9 -16.5 27 -25.5 q9 -5 19 -6.5 q10 -1.5 20 -3.5 l0 -77 l0 0 Z" /><glyph glyph-name="quotesingle" unicode="&#39;" d="M95 452 l-33 0 l-37 289 l104 0 l-34 -289 Z" /></font>
</defs>
</svg>
